PathFileType  4	(X/Y/Z) C:\Users\antoi\Documents\MyRepositories\mobilecap\ResultsAnalysis
DataRate	CameraRate	NumFrames	NumMarkers	Units	OrigDataRate	OrigDataStartFrame	OrigNumFrames
100.0	100.0	4	51	mm	100.0	1351	2161
Frame#	Time	r_knee			r_shank_antsup			r_ankle			r_calc			r_5meta			r_toe			L_knee			L_shank_antsup			L_ankle			L_calc			L_5meta			L_toe			r_sh2			r_sh3			r_sh4			L_sh2			L_sh3			r_thigh1			r_thigh2			r_thigh3			r_thigh4			r_thigh5			L_thigh1			L_thigh2			L_thigh3			L_thigh4			r.ASIS			r.PSIS			L.ASIS			L.PSIS			C7			R_Shoulder			L_Shoulder			R_Sternum			L_Sternum			R_humerus			R_elbow_med			R_elbow_lat			R_forearm			R_wrist_radius			R_wrist_ulna			L_humerus			L_elbow_med			L_elbow_lat			L_forearm			L_wrist_radius			L_wrist_ulna			R_HJC			L_HJC			R_HJC_reg			L_HJC_reg			
		X1	Y1	Z1	X2	Y2	Z2	X3	Y3	Z3	X4	Y4	Z4	X5	Y5	Z5	X6	Y6	Z6	X7	Y7	Z7	X8	Y8	Z8	X9	Y9	Z9	X10	Y10	Z10	X11	Y11	Z11	X12	Y12	Z12	X13	Y13	Z13	X14	Y14	Z14	X15	Y15	Z15	X16	Y16	Z16	X17	Y17	Z17	X18	Y18	Z18	X19	Y19	Z19	X20	Y20	Z20	X21	Y21	Z21	X22	Y22	Z22	X23	Y23	Z23	X24	Y24	Z24	X25	Y25	Z25	X26	Y26	Z26	X27	Y27	Z27	X28	Y28	Z28	X29	Y29	Z29	X30	Y30	Z30	X31	Y31	Z31	X32	Y32	Z32	X33	Y33	Z33	X34	Y34	Z34	X35	Y35	Z35	X36	Y36	Z36	X37	Y37	Z37	X38	Y38	Z38	X39	Y39	Z39	X40	Y40	Z40	X41	Y41	Z41	X42	Y42	Z42	X43	Y43	Z43	X44	Y44	Z44	X45	Y45	Z45	X46	Y46	Z46	X47	Y47	Z47	X48	Y48	Z48	X49	Y49	Z49	X50	Y50	Z50	X51	Y51	Z51	

1351	13.50000000	-169.88241	470.24820	-416.15990	-109.71099	428.14882	-418.10727	-257.38169	96.84979	-433.01681	-317.75237	55.90011	-483.38124	-140.95796	44.16576	-390.15889	-97.94157	68.87334	-441.13996	-172.79637	464.46588	-802.04772	-133.30431	392.90235	-813.03676	-249.96328	95.88290	-772.60948	-306.50228	55.37789	-718.95099	-135.40408	45.36155	-811.53047	-87.91917	68.25116	-763.03925	-132.87114	315.25519	-433.77912	-181.00369	436.50832	-388.90255	-200.20884	321.12030	-384.42155	-242.19606	295.96059	-814.15660	-218.94370	417.21790	-819.85764	-433.02729	580.81343	-512.68652	-323.69021	583.13176	-489.24599	-313.73006	564.69223	-424.71968	-453.09509	534.76569	-415.73920	-340.86483	521.64376	-399.21596	-468.56282	561.53526	-804.74562	-330.66881	527.92929	-822.38021	-495.78299	451.29353	-808.94589	-361.62678	418.90056	-792.10311	-470.63165	600.00317	-492.91282	-655.97953	614.26918	-566.90075	-474.65071	589.76347	-725.64623	-657.26066	621.12075	-660.44604	-361.76413	1031.05023	-621.35267	-289.62994	968.43203	-467.15987	-270.13640	958.92358	-762.21945	-289.20607	896.28889	-596.46169	-291.45934	888.23031	-625.24339	-317.49845	770.07065	-339.09670	-390.12612	663.82476	-342.20276	-337.31084	688.40261	-294.77797	-228.15652	716.44025	-376.73036	-174.89618	759.51709	-450.71671	-154.28800	720.79506	-441.11846	-322.88011	754.05734	-871.98942	-392.93506	645.26602	-839.44754	-357.31006	652.50895	-902.85056	-235.35217	679.48036	-822.88775	-167.66858	730.82411	-761.44370	-160.45821	685.95492	-749.19003	-535.68763	511.27476	-524.82837	-550.06523	515.30424	-714.90872	-529.69866	510.77220	-530.23532	-531.79936	522.00556	-683.59090	
1352	13.51000000	-168.18867	469.30040	-415.60418	-107.99882	427.19287	-417.50712	-257.24328	96.49369	-433.33218	-317.59817	55.92718	-483.49170	-140.74574	43.54721	-390.35084	-97.63158	68.39260	-441.17059	-170.77917	463.90953	-801.22520	-131.50059	392.10442	-812.49485	-249.62396	95.66753	-772.40986	-306.29836	55.37343	-718.86293	-135.28758	44.63036	-810.93569	-87.74547	67.80510	-762.91530	-131.43747	314.34670	-433.48161	-179.27982	435.74969	-388.43259	-198.92049	320.52486	-383.93600	-240.68903	295.61913	-813.79576	-216.97261	416.84254	-819.57425	-429.99408	582.60838	-512.25723	-321.42446	583.94128	-488.41090	-311.15930	564.74973	-423.76974	-450.04434	534.76160	-416.50645	-338.74308	521.57740	-398.88612	-465.63824	563.96898	-804.63048	-328.06446	528.88257	-821.82646	-494.02454	453.75314	-808.22028	-360.17714	420.16538	-791.66270	-466.48803	602.96827	-491.61321	-651.12307	619.42114	-566.86634	-470.19123	591.48519	-725.20923	-652.33292	626.41551	-660.40201	-337.34098	1037.52449	-611.30673	-276.65953	968.26820	-467.51109	-256.87306	959.15961	-759.75732	-275.02811	896.77142	-596.84141	-278.97765	890.36380	-627.29876	-304.57797	771.24065	-338.37898	-376.40755	665.85390	-338.57164	-324.50975	689.88011	-293.38407	-215.76971	718.14602	-375.30521	-162.88312	760.49843	-450.20448	-141.98263	722.23488	-440.11649	-312.34217	756.39313	-871.97363	-383.94645	648.57752	-840.12515	-348.63929	655.76058	-904.00197	-226.14123	679.54940	-823.28071	-157.26170	729.34772	-760.69517	-151.51675	684.37391	-749.47203	-532.86132	515.01796	-523.84139	-546.62127	518.38242	-713.98503	-526.27289	513.34491	-529.20233	-528.26247	524.85700	-683.13847	
1353	13.52000000	-166.27583	468.30152	-415.14052	-106.03433	426.27975	-416.97081	-257.02216	96.37234	-433.45885	-317.47980	55.92869	-483.57638	-140.64920	42.76134	-390.78263	-97.51850	68.13065	-440.98101	-168.39081	463.48109	-800.51650	-129.41385	391.23768	-811.91168	-249.27055	95.56929	-772.31209	-306.16237	55.46038	-718.89222	-135.11910	44.17922	-810.72890	-87.50747	67.22535	-762.67615	-129.93217	313.58623	-433.17271	-177.32135	435.11087	-388.04199	-197.52773	320.12357	-383.53270	-239.15490	295.14591	-813.04635	-214.73881	416.35236	-818.99128	-426.61041	584.69867	-511.83648	-319.02584	584.94316	-487.54804	-308.31116	564.84825	-422.92007	-446.93693	535.46754	-416.58617	-336.37797	521.67255	-398.53010	-462.40101	566.40662	-803.97507	-325.07787	529.86092	-821.01809	-491.81664	456.57048	-807.63852	-358.35316	421.44788	-791.17612	-462.12726	604.68702	-491.59817	-646.23784	624.61735	-566.85604	-465.84783	593.49391	-725.34470	-647.35428	631.80257	-660.00203	-317.07770	1041.86011	-606.34397	-264.06989	968.50180	-468.25578	-244.21603	959.57256	-757.03243	-263.72015	896.38425	-597.37597	-268.31354	891.50497	-628.18505	-291.93468	772.73128	-338.15939	-363.57743	666.73909	-336.64387	-312.10903	691.69064	-292.50991	-203.49214	720.33487	-373.86342	-150.74945	761.69583	-449.85343	-129.54802	724.17096	-439.16125	-302.25587	758.97021	-871.90420	-375.20325	652.15849	-840.69355	-340.42386	659.31351	-905.08976	-217.28532	680.06555	-824.36362	-147.42010	728.12425	-760.79105	-142.93459	682.73248	-749.86401	-529.97437	517.99680	-523.89354	-543.72895	521.86114	-714.02902	-523.36707	516.05746	-529.37372	-525.21344	527.93788	-683.37302	
1354	13.53000000	-164.01672	467.50446	-414.88896	-103.90208	425.33677	-416.40966	-256.75776	96.28079	-433.54965	-317.38477	55.98187	-483.69943	-140.62681	42.25616	-390.96110	-97.61807	67.98219	-440.53735	-165.65115	463.05729	-799.84284	-126.96664	390.39207	-811.25654	-248.88344	95.47378	-772.09237	-306.07515	55.52143	-718.88934	-134.91292	44.13340	-811.08545	-87.24296	66.55132	-762.49186	-128.32360	312.71080	-432.87467	-175.15598	434.32049	-387.83349	-196.12283	319.69518	-383.34283	-237.37838	294.85886	-812.62346	-212.19977	415.94364	-818.40292	-422.92357	586.69155	-511.56756	-315.74211	585.65772	-486.65356	-305.00956	565.08516	-422.16487	-443.98519	537.09136	-416.14332	-333.62957	522.07360	-398.03793	-458.77227	568.85403	-803.01480	-321.61834	531.01914	-820.25564	-489.16809	459.57783	-807.03209	-356.14200	422.87011	-790.74184	-457.64513	606.50557	-492.03512	-641.40677	629.76386	-566.67590	-461.23844	595.89585	-725.38525	-642.34278	637.15178	-659.68097	-303.94627	1042.82212	-607.09497	-252.05429	969.06243	-469.71644	-231.98048	960.50539	-754.16788	-255.12913	895.83356	-597.46535	-259.57157	891.31661	-627.51092	-279.75262	774.64405	-338.49976	-352.55462	666.97167	-337.38346	-300.15989	693.87946	-292.15305	-191.44594	722.51176	-373.30728	-138.62739	763.38713	-449.64124	-117.09854	726.28740	-438.39519	-292.58206	761.63431	-871.67640	-368.69160	655.72136	-842.60462	-332.53672	663.00622	-906.07503	-208.80812	680.77096	-825.42656	-138.46641	726.85403	-760.99038	-134.80235	681.17319	-750.22886	-526.81020	521.04357	-524.14295	-540.61431	525.60682	-714.25998	-520.33648	519.18907	-529.94829	-521.88719	531.39887	-683.64435	
